<svg version="1.1" viewBox="0 0 200 70" xmlns="http://www.w3.org/2000/svg">
	<path
		d="m 8,0 h 184 c 4.432,0 8,3.568 8,8 v 54 c 0,4.432 -3.568,8 -8,8 H 8 C 3.568,70 0,66.432 0,62 V 8 C 0,3.568 3.568,0 8,0 Z" />
	<g fill="#ffffff">
		<path
			d="m 30.595703,37.762695 h -12.9375 V 51.126953 H 10.919922 V 18.423828 h 21.292969 v 5.458008 H 17.658203 v 8.445312 h 12.9375 z" />
		<path
			d="m 34.211914,38.750977 q 0,-3.616211 1.392578,-6.44629 1.392578,-2.830078 3.998047,-4.379882 2.62793,-1.549805 6.086914,-1.549805 4.918945,0 8.018555,3.009766 3.12207,3.009765 3.481445,8.175781 l 0.04492,1.662109 q 0,5.592774 -3.12207,8.984375 -3.122071,3.369141 -8.37793,3.369141 -5.255859,0 -8.400391,-3.369141 -3.12207,-3.36914 -3.12207,-9.164062 z m 6.491211,0.471679 q 0,3.458985 1.302734,5.300781 1.302735,1.819336 3.728516,1.819336 2.358398,0 3.683594,-1.796875 1.325195,-1.819336 1.325195,-5.794921 0,-3.391602 -1.325195,-5.25586 -1.325196,-1.864258 -3.728516,-1.864258 -2.380859,0 -3.683594,1.864258 -1.302734,1.841797 -1.302734,5.727539 z" />
		<path
			d="m 74.888672,32.911133 q -1.325195,-0.179688 -2.335938,-0.179688 -3.683593,0 -4.829101,2.493164 V 51.126953 H 61.232422 V 26.824219 h 6.131836 l 0.179687,2.897461 q 1.954102,-3.34668 5.413086,-3.34668 1.078125,0 2.021485,0.291992 z" />
		<path
			d="m 86.905273,20.849609 v 5.97461 h 4.155274 v 4.761718 h -4.155274 v 12.128907 q 0,1.347656 0.516602,1.93164 0.516602,0.583985 1.976562,0.583985 1.078125,0 1.90918,-0.157227 v 4.918945 q -1.90918,0.583985 -3.930664,0.583985 -6.828125,0 -6.962891,-6.895508 V 31.585937 h -3.548828 v -4.761718 h 3.548828 v -5.97461 z" />
	</g>
	<path fill="#f7971d"
		d="m 104,10 h 82 c 2.216,0 4,1.784 4,4 v 42 c 0,2.216 -1.784,4 -4,4 h -82 c -2.216,0 -4,-1.784 -4,-4 V 14 c 0,-2.216 1.784,-4 4,-4 z" />

	<path
		d="m 114.82714,30.373047 q 2.58301,-3.09961 6.49121,-3.09961 7.90625,0 8.01856,9.186524 v 15.56543 H 122.8457 V 36.639648 q 0,-2.088867 -0.89844,-3.077148 -0.89844,-1.010742 -2.98731,-1.010742 -2.85254,0 -4.13281,2.201172 v 17.272461 h -6.49121 v -34.5 h 6.49121 z" />
	<path
		d="m 148.78808,49.554687 q -2.40332,2.919922 -6.64844,2.919922 -3.9082,0 -5.97461,-2.246093 -2.04394,-2.246094 -2.08887,-6.581055 V 27.722656 h 6.49122 v 15.700196 q 0,3.795898 3.45898,3.795898 3.30176,0 4.53711,-2.291016 V 27.722656 h 6.51367 v 24.302735 h -6.10937 z" />
	<path
		d="m 181.87304,40.098633 q 0,5.839844 -2.49316,9.11914 -2.49317,3.256836 -6.9629,3.256836 -3.95312,0 -6.31152,-3.032226 l -0.29199,2.583008 h -5.83984 v -34.5 h 6.49121 v 12.375976 q 2.24609,-2.62793 5.90722,-2.62793 4.44727,0 6.96289,3.279297 2.53809,3.256836 2.53809,9.186524 z m -6.49121,-0.47168 q 0,-3.683594 -1.16797,-5.368164 -1.16797,-1.707031 -3.48145,-1.707031 -3.09961,0 -4.26757,2.538086 v 9.59082 q 1.19043,2.560547 4.3125,2.560547 3.14453,0 4.13281,-3.099609 0.47168,-1.482422 0.47168,-4.514649 z" />
</svg>
